PathFileType	4	(X/Y/Z)	/home/mitkof6/dev/sinergia_osimrl/data/02761/02761_PRE/experimental_data/task.trc
DataRate	CameraRate	NumFrames	NumMarkers	Units	OrigDataRate	OrigDataStartFrame	OrigNumFrames
100.000000	100.000000	4	43	mm	100.000000	221	354
Frame#	Time	C7			CLAV			LANK			LASI			LBHD			LELB			LFHD			LFIN			LHEE			LKNE			LMED			LMET			LMIF			LPSI			LSHO			LTHI			LTIB			LTOE			LTTU			LWRA			LWRB			RANK			RASI			RBAK			RBHD			RELB			RFHD			RFIN			RHEE			RKNE			RMED			RMET			RMIF			RPSI			RSHO			RTHI			RTIB			RTOE			RTTU			RWRA			RWRB			STRN			T10			
		X1	Y1	Z1	X2	Y2	Z2	X3	Y3	Z3	X4	Y4	Z4	X5	Y5	Z5	X6	Y6	Z6	X7	Y7	Z7	X8	Y8	Z8	X9	Y9	Z9	X10	Y10	Z10	X11	Y11	Z11	X12	Y12	Z12	X13	Y13	Z13	X14	Y14	Z14	X15	Y15	Z15	X16	Y16	Z16	X17	Y17	Z17	X18	Y18	Z18	X19	Y19	Z19	X20	Y20	Z20	X21	Y21	Z21	X22	Y22	Z22	X23	Y23	Z23	X24	Y24	Z24	X25	Y25	Z25	X26	Y26	Z26	X27	Y27	Z27	X28	Y28	Z28	X29	Y29	Z29	X30	Y30	Z30	X31	Y31	Z31	X32	Y32	Z32	X33	Y33	Z33	X34	Y34	Z34	X35	Y35	Z35	X36	Y36	Z36	X37	Y37	Z37	X38	Y38	Z38	X39	Y39	Z39	X40	Y40	Z40	X41	Y41	Z41	X42	Y42	Z42	X43	Y43	Z43	

222	2.21	625.6343383789062	1218.800170898438	-406.4938964843747	733.8576049804688	1141.840576171875	-397.4358215332029	588.3495483398438	64.88521575927744	-474.1012878417969	706.1072387695312	819.6688232421876	-484.8951721191405	653.138427734375	1337.018188476562	-452.0950622558591	680.5712890625	937.9367675781251	-605.2413940429685	780.30517578125	1366.528198242188	-445.8085327148435	811.7518310546875	688.2612304687501	-638.2250976562499	532.8148193359375	49.58865737915049	-441.2181091308594	678.6641845703125	433.2950744628907	-491.5724182128905	591.4983520507812	72.73642730712899	-399.8715515136719	675.33056640625	26.43047714233409	-485.3034973144531	647.0159912109375	65.76077270507822	-432.5685424804688	568.6160888671875	869.7090454101564	-445.9183959960936	680.0806274414062	1194.894775390625	-530.127014160156	665.5299072265625	566.5922851562501	-554.5004882812499	631.2413330078125	242.2243652343751	-538.0322265625	700.2496948242188	39.56010055542002	-446.4529418945312	710.6856689453125	355.0371093750001	-425.5546264648437	758.0592651367188	716.3078613281251	-615.1401977539061	814.5628662109375	747.6195068359376	-599.8458862304686	429.1995239257812	196.1073303222657	-292.3624267578124	679.4178466796875	818.9074096679689	-287.6955261230467	580.4627685546875	1099.902099609375	-322.5726928710935	626.7265014648438	1312.962890625	-346.7127990722653	630.5271606445312	954.82958984375	-219.2041168212889	767.90869140625	1349.628051757812	-321.1182861328122	817.9730224609375	781.6719360351562	-198.6683807373045	406.0827941894531	217.9517822265626	-348.6108703613281	698.1520385742188	442.3524780273438	-246.937530517578	476.6442565917969	180.3413848876954	-350.3088684082031	435.7476501464844	98.90955352783209	-263.5429382324219	479.6351013183594	156.7848815917969	-302.1481628417968	554.9481811523438	870.0061035156251	-360.6475524902342	649.797607421875	1210.258056640625	-286.8664550781247	660.6776123046875	571.7942504882812	-203.1930847167968	546.0541381835938	315.5479125976563	-223.2237854003906	468.1326293945312	86.38079071044928	-285.4992980957031	712.5309448242188	350.3664855957032	-286.3299865722656	761.7125854492188	807.26171875	-191.0319519042967	788.0302734375	822.8287353515625	-244.5712127685545	758.025146484375	1004.282836914063	-392.5716247558591	586.9332885742188	966.7015380859376	-411.8259277343748	
223	2.22	634.9913330078125	1220.536254882812	-406.4532165527341	742.7351684570312	1143.555786132812	-396.6732177734373	588.9840087890625	66.50714111328135	-474.6490783691406	713.9262084960938	821.3385620117189	-485.5808715820311	662.3570556640625	1338.700073242188	-451.9988098144528	692.6497802734375	939.8794555664064	-604.7819824218748	789.5411376953125	1368.105712890625	-445.6502685546872	828.67138671875	692.7890625000001	-634.4470214843749	534.0099487304688	51.86774826049815	-441.94775390625	680.5369262695312	434.837127685547	-492.6685180664061	592.1952514648438	74.58941650390634	-400.4824829101562	675.6217041015625	26.4861240386964	-485.5343933105469	647.6055297851562	66.77056121826182	-433.1172790527344	576.783935546875	871.9346313476564	-445.7711181640623	689.8833618164062	1196.743041992188	-529.617492675781	668.538330078125	568.3685913085939	-555.3491210937499	632.4934692382812	243.838592529297	-538.9132080078125	700.5956420898438	39.62185668945322	-446.6893920898438	712.2440185546875	356.226043701172	-426.8846435546874	774.0667114257812	719.5101928710939	-612.1416015624999	829.8841552734375	752.3026123046876	-596.4359741210936	451.3578491210938	195.9902954101563	-291.0527343749999	687.8049926757812	820.7288818359376	-288.0993041992186	588.6932373046875	1101.837890625	-322.9518432617185	634.875244140625	1314.924072265625	-346.4909362792966	636.5469360351562	956.7985229492188	-219.0222473144529	777.0118408203125	1351.439575195312	-320.9180603027341	822.9033203125	782.1572875976562	-199.0041503906248	427.9939880371094	216.635955810547	-347.9301147460937	715.0709838867188	446.9580078125001	-245.2223358154296	499.3824157714844	180.5200805664063	-348.7263183593749	459.6462097167969	99.21193695068365	-261.0237121582031	502.6368103027344	157.6452178955079	-300.1402282714843	563.0784301757812	872.3411865234376	-360.3795471191405	658.1436767578125	1211.965087890625	-286.6011962890622	672.1649169921875	574.8782958984375	-202.1594238281249	565.9320678710938	317.0501098632813	-221.6602325439453	492.6830749511719	87.22409057617193	-282.6217346191406	732.5292358398438	355.3670043945313	-284.1987609863281	766.5869140625	807.8261108398438	-191.5828857421873	793.8218994140625	825.00927734375	-244.0754241943358	766.619384765625	1005.980102539063	-391.9544372558591	595.4400024414062	968.6948242187501	-411.9060363769529	
224	2.23	644.2864990234375	1222.228393554688	-406.3652648925778	751.5703125	1145.207153320312	-395.9684448242185	589.6388549804688	68.22013092041026	-475.1082458496094	721.6015625	822.9514770507814	-486.1520080566405	671.555908203125	1340.358032226562	-451.8077087402341	704.6798706054688	941.8399047851564	-604.331115722656	798.7540283203125	1369.642822265625	-445.3629455566403	845.5595703125	697.4543457031251	-630.4920654296874	535.3388671875	54.19879150390635	-442.5043334960938	682.50439453125	436.4081420898439	-493.6886291503905	593.0639038085938	76.50700378417977	-400.9715881347656	675.870361328125	26.55120849609386	-485.7301330566406	648.2535400390625	67.82950592041026	-433.6072998046875	584.8611450195312	874.0844726562501	-445.4507751464842	699.585693359375	1198.56884765625	-529.0913085937498	671.9213256835938	570.2412719726564	-556.1033325195311	633.6451416015625	245.5433807373048	-539.6959228515625	700.9387817382812	39.69506072998057	-446.8990783691406	713.9876708984375	357.4491577148439	-428.2847900390624	789.7689208984375	722.8787231445314	-609.3639526367186	844.9938354492188	757.0283813476564	-592.7776489257811	474.0234680175781	195.0912322998047	-289.7006835937499	696.22509765625	822.5462036132814	-288.4353637695311	596.9530639648438	1103.738037109375	-323.2629089355466	642.9315185546875	1316.774291992188	-346.1910400390622	642.3482055664062	958.7106323242188	-218.9111633300779	786.1007690429688	1353.111450195312	-320.610168457031	827.731201171875	782.6580810546875	-198.9571685791014	450.3260192871094	214.6448669433595	-347.1174926757812	731.7833251953125	451.6267089843751	-243.6432189941405	522.5991821289062	180.2921600341798	-347.1837768554687	484.3814697265625	98.67882537841803	-258.9118041992188	526.2444458007812	157.9747619628907	-298.2628784179687	571.1483154296875	874.5717163085939	-359.9635314941405	666.5224609375	1213.586303710938	-286.313049316406	684.0493774414062	578.009765625	-201.0420837402342	585.758544921875	318.3029785156251	-220.2252655029296	517.97216796875	87.43213653564459	-280.2658996582031	752.3007202148438	360.5072021484376	-282.2497863769531	771.2684936523438	808.2489624023438	-191.9090728759764	799.5635375976562	827.1824340820312	-243.2120666503905	775.1687622070312	1007.609313964844	-391.4080810546873	603.83544921875	970.6461791992189	-411.8381347656248	
225	2.24	653.5281372070312	1223.846435546875	-406.2260742187497	760.37255859375	1146.772827148438	-395.3135070800779	590.3024291992188	69.9893798828126	-475.4604797363281	729.1546020507812	824.4891967773439	-486.6233825683592	680.734375	1341.95751953125	-451.5273132324216	716.6638793945312	943.7939453125001	-603.8845214843748	807.9395751953125	1371.106201171875	-444.958557128906	862.3883056640625	702.2005004882814	-626.3978271484374	536.731201171875	56.55279922485362	-442.8598937988281	684.584716796875	437.9661560058595	-494.6273803710936	594.1021118164062	78.44744873046884	-401.3313293457031	676.0682373046875	26.62556076049815	-485.8831176757812	648.9535522460938	68.91744232177744	-434.0264587402344	592.8580932617188	876.1357421875001	-444.9621276855467	709.20263671875	1200.341186523438	-528.544982910156	675.6993408203125	572.1519775390626	-556.7575073242186	634.66357421875	247.2971496582032	-540.3655395507812	701.2705078125	39.77692031860362	-447.0749816894531	715.95458984375	358.6705322265626	-429.7395629882812	805.2089233398438	726.3735351562501	-606.7855224609374	859.8602905273438	761.7532348632814	-588.9412841796874	497.1409301757812	193.4254760742188	-288.3274230957031	704.686279296875	824.3126220703126	-288.692901611328	605.26318359375	1105.570190429688	-323.5001831054685	651.02978515625	1318.4833984375	-345.829406738281	647.9725952148438	960.538818359375	-218.8922424316404	795.1770629882812	1354.627197265625	-320.2058105468747	832.4807739257812	783.154052734375	-198.5459136962889	473.0493774414062	211.983871459961	-346.1854553222656	748.3114624023438	456.2968444824219	-242.1953887939452	546.2609252929688	179.6636505126954	-345.6777648925781	509.9270324707031	97.36782836914068	-257.1781311035156	550.423828125	157.7981109619141	-296.5026550292968	579.1678466796875	876.6533203125001	-359.4007263183592	674.9375610351562	1215.101806640625	-285.9975585937497	696.3613891601562	581.2034301757812	-199.849395751953	605.4563598632812	319.4143066406251	-218.9644317626953	543.9624633789062	87.04782104492193	-278.3736877441406	771.7044067382812	365.7099304199219	-280.4507751464843	775.800537109375	808.5452880859375	-192.0135650634764	805.28369140625	829.2926635742188	-242.0227050781248	783.6843872070312	1009.149230957031	-390.9208068847654	612.1436157226562	972.5210571289064	-411.624328613281	
